<?xml version="1.0" encoding="utf-8"?>
<!-- Generator: Adobe Illustrator 21.0.2, SVG Export Plug-In . SVG Version: 6.00 Build 0)  -->
<svg version="1.1" id="lezhincomics" xmlns="http://www.w3.org/2000/svg" xmlns:xlink="http://www.w3.org/1999/xlink" x="0px"
	 y="0px" viewBox="0 0 20 19" style="enable-background:new 0 0 20 19;" xml:space="preserve">
<title>대지 1</title>
<rect x="17.3" y="17.5" width="2.7" height="0.7"/>
<path d="M14.5,12L4.7,0.7H4.4v2.4H2.2L1.8,5H0.7v0.7H0v0.9h3.5v0.8H0.3v0.7H4v9.1H2v1h3.7v-6.7l2.9,3.2c0,0-0.3-3.5,3.1-3.6v0.8
	c0,0-2.2,0-2.3,2.6c0,1.7,1.4,2.8,1.4,2.8h-3v1h8.6v-1.8C16.5,16.5,16.7,15,14.5,12z M3.7,5H2.8V4.1h0.9V5z"/>
</svg>
