<svg xmlns="http://www.w3.org/2000/svg" viewBox="0 0 27.23 31.89"><title>yongman</title><path d="M3.63,5C5.42,3.35,6.72,2.11,8.8,1.36c1.35-.49,1.59-.26,3.47-.92A4.68,4.68,0,0,1,14,.08c.79,0,.85.25,1.63.28,1.12,0,1.39-.42,2.27-.28.49.08.66.26,1.49.78,1.77,1.1,2,.86,2.9,1.56a13.62,13.62,0,0,1,2.05,2.41,17.48,17.48,0,0,1,1.91,2.76,10.39,10.39,0,0,1,.85,3.68,40.69,40.69,0,0,1-.21,4.46,2.54,2.54,0,0,1-.57,1.63c-.14.16-.53.59-.85.5-.58-.17-.08-1.85-1.06-3.61-.08-.14-.74-1.32-1.27-1.2s-.4,1.17-1,1.35c-.32.09-.69-.15-1.42-.64a10.26,10.26,0,0,1-.92-.71c-1-.79-.91-.9-1.2-1s-.4.06-1.77.28a8.56,8.56,0,0,1-1.27.14c-.57,0-.66-.07-1.13-.07-.89,0-1,.25-1.77.28s-.87-.22-1.84-.28-1.11.22-1.77.14c-1.64-.19-2.53-2.09-3-1.84-.28.16,0,1-.28,1.06s-.41-.54-.78-.57c-.58,0-1.13,1.38-1.42,2.12a13.44,13.44,0,0,0-.78,3.12c-.17,1.27.12,1.95-.14,2.05s-1-.72-1.42-1.49a8,8,0,0,1-.64-3.12,15.68,15.68,0,0,1-.07-2.62,9.39,9.39,0,0,1,.78-3.54A9,9,0,0,1,3.63,5Z" transform="translate(-0.39 -0.06)"/><path d="M6.37,18.5c-.05-.27,1-.73,1.9-.91a3.21,3.21,0,0,1,1.33,0,2.28,2.28,0,0,1,1,.53c.08.08.36.33.29.46s-.17.09-.25.08-.31-.19-.46-.34a2.19,2.19,0,0,0-.67-.38,1.86,1.86,0,0,0-1.21,0c-.88.26-1.18.85-1.7.71C6.55,18.65,6.39,18.6,6.37,18.5Z" transform="translate(-0.39 -0.06)"/><path d="M20.95,18.5c.05-.27-1-.73-1.89-.91a3.17,3.17,0,0,0-1.33,0,2.26,2.26,0,0,0-1,.53c-.08.08-.36.33-.29.46s.17.09.25.08.3-.19.46-.34a2.18,2.18,0,0,1,.67-.38A1.84,1.84,0,0,1,19,18c.88.26,1.17.85,1.69.71C20.77,18.65,20.93,18.6,20.95,18.5Z" transform="translate(-0.39 -0.06)"/><path d="M1.28,17.91c-.46,0-.75.86-.8,1a5,5,0,0,0,.05,2.34,9.5,9.5,0,0,0,.37,1.81,15.89,15.89,0,0,0,.74,1.59,3.38,3.38,0,0,0,.8,1.22c.06.05.71.6,1,.42s-.34-1.17-.64-3a22.17,22.17,0,0,1-.21-2.23,5.32,5.32,0,0,0-.48-2.39C1.92,18.42,1.64,17.9,1.28,17.91Z" transform="translate(-0.39 -0.06)"/><path d="M26.72,17.69c.46,0,.75.86.8,1A5,5,0,0,1,27.47,21a9.45,9.45,0,0,1-.37,1.81,15.84,15.84,0,0,1-.75,1.59,3.38,3.38,0,0,1-.8,1.22c-.06.05-.71.6-1,.42s.34-1.17.64-3a22,22,0,0,0,.21-2.23,5.29,5.29,0,0,1,.48-2.39C26.07,18.21,26.35,17.68,26.72,17.69Z" transform="translate(-0.39 -0.06)"/><circle cx="12.31" cy="25.5" r="0.5"/><circle cx="14.31" cy="25.5" r="0.5"/><path d="M9.68,29.95a.82.82,0,0,0,0,.12c0,1,2,1.88,4.37,1.88s4.37-.84,4.37-1.88h0a8.64,8.64,0,0,1-4.29.9A8.07,8.07,0,0,1,9.68,29.95Z" transform="translate(-0.39 -0.06)"/></svg>