<svg style="position: absolute; width: 0; height: 0; overflow: hidden;" version="1.1" xmlns="http://www.w3.org/2000/svg">
<defs>
<symbol id="icon-comics" viewBox="0 0 32 32">
<title>comics</title>
<path d="M0 0v24.505h15.761l7.591 7.495v-7.495h8.649v-24.505zM17.297 19.604h-2.883v-3.171h2.883zM17.297 14.126h-2.883v-9.514h2.883z"></path>
</symbol>
<symbol id="icon-lezhin" viewBox="0 0 34 32">
<title>lezhin</title>
<path d="M29.137 29.474h4.547v1.179h-4.547v-1.179z"></path>
<path d="M24.421 20.211l-16.505-19.032h-0.505v4.042h-3.705l-0.674 3.2h-1.853v1.179h-1.179v1.516h5.895v1.347h-5.389v1.179h6.232v15.326h-3.368v1.684h6.232v-11.284l4.884 5.389c0 0-0.505-5.895 5.221-6.063v1.347c0 0-3.705 0-3.874 4.379 0 2.863 2.358 4.716 2.358 4.716h-5.053v1.684h14.484v-3.032c0.168 0 0.505-2.526-3.2-7.579zM6.232 8.421h-1.516v-1.516h1.516v1.516z"></path>
</symbol>
<symbol id="icon-lezhincomics" viewBox="0 0 32 32">
<title>lezhincomics</title>
<path d="M28.7 31.1h3.3v0.9h-3.3v-0.9z"></path>
<path d="M25.26 24.38l-11.88-13.68h-0.28v2.9h-2.72l-0.5 2.3h-1.38v0.8h-0.8v1.1h4.3v1h-3.9v0.9h4.4v11.1h-2.4v1.2h4.5v-8.17l3.58 3.88s-0.31-4.29 3.82-4.4v0.91c-1.577 0.099-2.818 1.402-2.818 2.994 0 0.076 0.003 0.151 0.008 0.225 0.041 1.35 0.671 2.554 1.642 3.364l-3.633 0.006v1.19h10.5v-2.18s0.3-1.82-2.44-5.44zM12.2 15.9h-1.1v-1.1h1.1z"></path>
<path d="M0 0v8.5h5.47l2.63 2.6v-2.6h3v-8.5zM6 6.8h-1v-1.1h1zM6 4.9h-1v-3.3h1z"></path>
</symbol>
<symbol id="icon-yongman" viewBox="0 0 27 32">
<title>yongman</title>
<path d="M3.251 4.957c1.796-1.656 3.101-2.9 5.188-3.653 1.355-0.492 1.595-0.261 3.482-0.923 0.512-0.22 1.107-0.351 1.732-0.361 0.796-0 0.857 0.251 1.639 0.281 1.124 0 1.395-0.421 2.278-0.281 0.492 0.080 0.662 0.261 1.495 0.783 1.776 1.104 2.007 0.863 2.91 1.565 0.766 0.715 1.444 1.507 2.026 2.37 0.722 0.862 1.356 1.768 1.902 2.731 0.529 1.171 0.837 2.432 0.898 3.757 0.002 0.118 0.002 0.23 0.002 0.343 0 1.463-0.077 2.909-0.227 4.333 0.015-0.17 0.015-0.16 0.015-0.151 0 0.612-0.216 1.174-0.576 1.614-0.137 0.156-0.528 0.588-0.849 0.497-0.582-0.171-0.080-1.856-1.064-3.622-0.080-0.14-0.743-1.325-1.274-1.204s-0.401 1.174-1.003 1.355c-0.321 0.090-0.692-0.151-1.425-0.642-0.348-0.239-0.649-0.473-0.936-0.723-0.991-0.782-0.901-0.892-1.192-0.993s-0.401 0.060-1.776 0.281c-0.373 0.073-0.812 0.124-1.259 0.14-0.587 0-0.677-0.070-1.149-0.070-0.893 0-1.003 0.251-1.776 0.281s-0.873-0.221-1.846-0.281-1.114 0.221-1.776 0.14c-1.646-0.191-2.539-2.097-3.010-1.846-0.281 0.161 0 1.003-0.281 1.064s-0.411-0.542-0.783-0.572c-0.582 0-1.134 1.385-1.425 2.127-0.359 0.907-0.633 1.965-0.776 3.063-0.178 1.342 0.113 2.024-0.148 2.125s-1.003-0.722-1.425-1.495c-0.404-0.923-0.64-1.999-0.642-3.13-0.061-0.521-0.096-1.123-0.096-1.734 0-0.315 0.009-0.628 0.028-0.939 0.028-1.248 0.313-2.465 0.804-3.569 0.585-1.015 1.367-1.918 2.294-2.644z"></path>
<path d="M6.001 18.504c-0.050-0.271 1.003-0.733 1.907-0.913 0.201-0.044 0.431-0.070 0.667-0.070s0.467 0.025 0.689 0.074c0.369 0.092 0.708 0.277 0.984 0.53 0.078 0.079 0.359 0.33 0.289 0.46s-0.171 0.090-0.251 0.080-0.311-0.191-0.462-0.341c-0.191-0.159-0.414-0.289-0.657-0.376-0.196-0.069-0.405-0.106-0.622-0.106s-0.426 0.037-0.62 0.105c-0.87 0.257-1.171 0.849-1.693 0.708-0.050 0-0.211-0.050-0.231-0.151z"></path>
<path d="M20.631 18.504c0.050-0.271-1.003-0.733-1.897-0.913-0.201-0.045-0.431-0.071-0.667-0.071s-0.467 0.026-0.688 0.075c-0.37 0.091-0.708 0.277-0.984 0.529-0.079 0.079-0.36 0.33-0.289 0.46s0.171 0.090 0.251 0.080 0.301-0.191 0.462-0.341c0.191-0.16 0.414-0.289 0.657-0.377 0.166-0.049 0.339-0.075 0.518-0.075 0.245 0 0.479 0.048 0.693 0.135 0.871 0.256 1.162 0.849 1.683 0.708 0.080-0.060 0.241-0.11 0.261-0.211z"></path>
<path d="M0.893 17.912c-0.462 0-0.753 0.863-0.803 1.003-0.073 0.322-0.115 0.691-0.115 1.070 0 0.454 0.060 0.895 0.174 1.313 0.064 0.642 0.195 1.258 0.382 1.849 0.241 0.579 0.49 1.104 0.766 1.612 0.143 0.395 0.416 0.804 0.76 1.14 0.061 0.051 0.713 0.603 1.004 0.422s-0.341-1.174-0.642-3.010c-0.099-0.637-0.174-1.408-0.209-2.19 0-0.1 0.001-0.162 0.001-0.224 0-0.806-0.179-1.57-0.498-2.255-0.177-0.218-0.458-0.74-0.819-0.73z"></path>
<path d="M26.421 17.691c0.462 0 0.753 0.863 0.803 1.003 0.071 0.317 0.112 0.68 0.112 1.053 0 0.449-0.059 0.885-0.17 1.3-0.064 0.641-0.195 1.257-0.382 1.848-0.244 0.578-0.496 1.103-0.776 1.611-0.144 0.397-0.416 0.805-0.761 1.141-0.061 0.051-0.713 0.603-1.004 0.422s0.341-1.174 0.642-3.010c0.099-0.637 0.174-1.409 0.209-2.191-0-0.101-0.001-0.165-0.001-0.229 0-0.804 0.179-1.566 0.498-2.249 0.177-0.178 0.458-0.71 0.829-0.7z"></path>
<path d="M12.854 25.588c0 0.277-0.225 0.502-0.502 0.502s-0.502-0.225-0.502-0.502c0-0.277 0.225-0.502 0.502-0.502s0.502 0.225 0.502 0.502z"></path>
<path d="M14.861 25.588c0 0.277-0.225 0.502-0.502 0.502s-0.502-0.225-0.502-0.502c0-0.277 0.225-0.502 0.502-0.502s0.502 0.225 0.502 0.502z"></path>
<path d="M9.322 29.993c-0.001 0.018-0.002 0.039-0.002 0.060s0.001 0.042 0.002 0.063c-0 1.001 2.007 1.884 4.385 1.884s4.385-0.843 4.385-1.887v0c-1.129 0.576-2.462 0.914-3.874 0.914-0.151 0-0.302-0.004-0.451-0.012-0.128 0.011-0.301 0.016-0.476 0.016-1.458 0-2.826-0.385-4.008-1.060z"></path>
</symbol>
</defs>
</svg>
